<svg width="189" height="149" viewBox="0 0 189 149" fill="none" xmlns="http://www.w3.org/2000/svg">
<rect x="57" y="2.5" width="75" height="75" rx="37.5" fill="#FFFCFC"/>
<rect x="57" y="2.5" width="75" height="75" rx="37.5" stroke="#FF5659" stroke-width="5"/>
<rect x="72" y="17.5" width="45" height="45" rx="22.5" fill="white"/>
<rect x="72" y="17.5" width="45" height="45" rx="22.5" stroke="#FF5659" stroke-width="5"/>
<circle cx="93.5" cy="40" r="10" fill="#569AFF"/>
<path d="M81.3374 50V37.088H85.0814V50H81.3374ZM83.2094 35.288C82.5214 35.288 81.9614 35.088 81.5294 34.688C81.0974 34.288 80.8814 33.792 80.8814 33.2C80.8814 32.608 81.0974 32.112 81.5294 31.712C81.9614 31.312 82.5214 31.112 83.2094 31.112C83.8974 31.112 84.4574 31.304 84.8894 31.688C85.3214 32.056 85.5374 32.536 85.5374 33.128C85.5374 33.752 85.3214 34.272 84.8894 34.688C84.4734 35.088 83.9134 35.288 83.2094 35.288ZM102.9 50V37.088H106.644V50H102.9ZM104.772 35.288C104.084 35.288 103.524 35.088 103.092 34.688C102.66 34.288 102.444 33.792 102.444 33.2C102.444 32.608 102.66 32.112 103.092 31.712C103.524 31.312 104.084 31.112 104.772 31.112C105.46 31.112 106.02 31.304 106.452 31.688C106.884 32.056 107.1 32.536 107.1 33.128C107.1 33.752 106.884 34.272 106.452 34.688C106.036 35.088 105.476 35.288 104.772 35.288Z" fill="#FF5659"/>
<path d="M92.0601 50L86.6361 37.088H90.5001L95.0121 48.2H93.0921L97.7721 37.088H101.372L95.9241 50H92.0601Z" fill="#3F4056"/>
<path d="M40.4778 124L28.3978 96H35.3978L45.9578 120.8H41.8378L52.5578 96H58.9978L46.8778 124H40.4778ZM61.2472 124V102.48H67.4872V124H61.2472ZM64.3672 99.48C63.2205 99.48 62.2872 99.1467 61.5672 98.48C60.8472 97.8133 60.4872 96.9867 60.4872 96C60.4872 95.0133 60.8472 94.1867 61.5672 93.52C62.2872 92.8533 63.2205 92.52 64.3672 92.52C65.5139 92.52 66.4472 92.84 67.1672 93.48C67.8872 94.0933 68.2472 94.8933 68.2472 95.88C68.2472 96.92 67.8872 97.7867 67.1672 98.48C66.4739 99.1467 65.5405 99.48 64.3672 99.48ZM79.1184 124L70.0784 102.48H76.5184L84.0384 121H80.8384L88.6384 102.48H94.6384L85.5584 124H79.1184ZM97.1847 124V102.48H103.425V124H97.1847ZM100.305 99.48C99.158 99.48 98.2247 99.1467 97.5047 98.48C96.7847 97.8133 96.4247 96.9867 96.4247 96C96.4247 95.0133 96.7847 94.1867 97.5047 93.52C98.2247 92.8533 99.158 92.52 100.305 92.52C101.451 92.52 102.385 92.84 103.105 93.48C103.825 94.0933 104.185 94.8933 104.185 95.88C104.185 96.92 103.825 97.7867 103.105 98.48C102.411 99.1467 101.478 99.48 100.305 99.48ZM118.456 124.32C116.429 124.32 114.603 123.867 112.976 122.96C111.349 122.027 110.056 120.733 109.096 119.08C108.163 117.427 107.696 115.48 107.696 113.24C107.696 110.973 108.163 109.013 109.096 107.36C110.056 105.707 111.349 104.427 112.976 103.52C114.603 102.613 116.429 102.16 118.456 102.16C120.269 102.16 121.856 102.56 123.216 103.36C124.576 104.16 125.629 105.373 126.376 107C127.123 108.627 127.496 110.707 127.496 113.24C127.496 115.747 127.136 117.827 126.416 119.48C125.696 121.107 124.656 122.32 123.296 123.12C121.963 123.92 120.349 124.32 118.456 124.32ZM119.536 119.2C120.549 119.2 121.469 118.96 122.296 118.48C123.123 118 123.776 117.32 124.256 116.44C124.763 115.533 125.016 114.467 125.016 113.24C125.016 111.987 124.763 110.92 124.256 110.04C123.776 109.16 123.123 108.48 122.296 108C121.469 107.52 120.549 107.28 119.536 107.28C118.496 107.28 117.563 107.52 116.736 108C115.909 108.48 115.243 109.16 114.736 110.04C114.256 110.92 114.016 111.987 114.016 113.24C114.016 114.467 114.256 115.533 114.736 116.44C115.243 117.32 115.909 118 116.736 118.48C117.563 118.96 118.496 119.2 119.536 119.2ZM125.176 124V119.6L125.296 113.2L124.896 106.84V94.32H131.136V124H125.176ZM147.151 124.32C144.858 124.32 142.818 123.84 141.031 122.88C139.271 121.92 137.871 120.613 136.831 118.96C135.818 117.28 135.311 115.373 135.311 113.24C135.311 111.08 135.818 109.173 136.831 107.52C137.871 105.84 139.271 104.533 141.031 103.6C142.818 102.64 144.858 102.16 147.151 102.16C149.418 102.16 151.445 102.64 153.231 103.6C155.018 104.533 156.418 105.827 157.431 107.48C158.445 109.133 158.951 111.053 158.951 113.24C158.951 115.373 158.445 117.28 157.431 118.96C156.418 120.613 155.018 121.92 153.231 122.88C151.445 123.84 149.418 124.32 147.151 124.32ZM147.151 119.2C148.191 119.2 149.125 118.96 149.951 118.48C150.778 118 151.431 117.32 151.911 116.44C152.391 115.533 152.631 114.467 152.631 113.24C152.631 111.987 152.391 110.92 151.911 110.04C151.431 109.16 150.778 108.48 149.951 108C149.125 107.52 148.191 107.28 147.151 107.28C146.111 107.28 145.178 107.52 144.351 108C143.525 108.48 142.858 109.16 142.351 110.04C141.871 110.92 141.631 111.987 141.631 113.24C141.631 114.467 141.871 115.533 142.351 116.44C142.858 117.32 143.525 118 144.351 118.48C145.178 118.96 146.111 119.2 147.151 119.2Z" fill="#3F4056"/>
<g filter="url(#filter0_f_50_27)">
<ellipse cx="94.5" cy="142" rx="90" ry="3" fill="#BABBCB"/>
</g>
<defs>
<filter id="filter0_f_50_27" x="0.5" y="135" width="188" height="14" filterUnits="userSpaceOnUse" color-interpolation-filters="sRGB">
<feFlood flood-opacity="0" result="BackgroundImageFix"/>
<feBlend mode="normal" in="SourceGraphic" in2="BackgroundImageFix" result="shape"/>
<feGaussianBlur stdDeviation="2" result="effect1_foregroundBlur_50_27"/>
</filter>
</defs>
</svg>
